<svg width="19" height="19" viewBox="0 0 19 19" fill="none" xmlns="http://www.w3.org/2000/svg">
<g clip-path="url(#clip0_3_819)">
<path fill-rule="evenodd" clip-rule="evenodd" d="M4.376 2.188C4.376 3.3964 3.3964 4.376 2.188 4.376C0.979601 4.376 0 3.3964 0 2.188C0 0.979601 0.979601 0 2.188 0C3.3964 0 4.376 0.979601 4.376 2.188ZM6.44278 18.1729V6.03389H10.0608V7.69389H10.1118C10.6148 6.74089 11.8448 5.73389 13.6798 5.73389C17.5018 5.73389 18.2058 8.24689 18.2058 11.5169V18.1739H14.4348V12.2699C14.4348 10.8629 14.4108 9.05189 12.4738 9.05189C10.5098 9.05189 10.2118 10.5859 10.2118 12.1699V18.1729H6.44278ZM4.07578 6.03389H0.300781V18.1729H4.07578V6.03389Z" fill="white"/>
</g>
<defs>
<clipPath id="clip0_3_819">
<rect width="18.205" height="18.174" fill="white"/>
</clipPath>
</defs>
</svg>
