<svg width="21" height="22" viewBox="0 0 21 22" fill="none" xmlns="http://www.w3.org/2000/svg">
<path d="M9.94694 0C8.169 0.0256672 4.34923 0.31534 2.21515 2.26146C0.630035 3.83816 0.0709102 6.14179 0.0127833 8.9991C-0.0453436 11.8555 -0.121001 17.2117 5.07536 18.6637H5.07813L5.07443 20.8784C5.07443 20.8784 5.0403 21.774 5.63725 21.9574C6.35415 22.1792 6.7758 21.499 7.46409 20.7638C7.83961 20.3605 8.36091 19.7701 8.75304 19.3155C12.3052 19.6143 15.0381 18.9341 15.35 18.8342C16.066 18.6032 20.1256 18.0862 20.7862 12.7318C21.469 7.21339 20.4541 3.72082 18.6272 2.14779C18.0773 1.64362 15.8537 0.0394174 10.9 0.0183337C10.9 0.0183337 10.5356 -0.00458342 9.94325 0.00275005L9.94694 0ZM10.0005 1.55195C10.5033 1.54828 10.8124 1.56753 10.8124 1.56753C15.0031 1.58586 17.0098 2.83989 17.4758 3.25973C19.0212 4.57517 19.8101 7.72215 19.2343 12.3322V12.334C18.677 16.8056 15.3832 17.0861 14.7761 17.2795C14.5177 17.362 12.117 17.9551 9.09903 17.7599C9.09903 17.7599 6.85146 20.4549 6.14932 21.1553C6.0386 21.2653 5.90943 21.3083 5.82455 21.2873C5.7046 21.257 5.67139 21.1149 5.67231 20.9077L5.69076 17.2245C1.29711 16.0145 1.55268 11.4567 1.60343 9.0706C1.65325 6.68355 2.10443 4.72734 3.44504 3.4119C5.25343 1.78662 8.49562 1.56203 10.0051 1.55103L10.0005 1.55195ZM10.3511 3.93716C10.2795 3.94075 10.2121 3.97138 10.1626 4.02279C10.113 4.0742 10.0852 4.14248 10.0847 4.21364C10.0842 4.2848 10.1112 4.35345 10.16 4.4055C10.2089 4.45755 10.2759 4.48907 10.3474 4.49359C11.8458 4.50276 13.0655 4.98585 14.0638 5.95295C15.0538 6.9118 15.5585 8.21533 15.5705 9.92586C15.5723 10.0789 15.6997 10.2009 15.8537 10.2009C15.9275 10.1999 15.9979 10.1701 16.0497 10.118C16.1015 10.0658 16.1305 9.99547 16.1305 9.9222C16.1176 8.10349 15.5603 6.6258 14.455 5.55511C13.3571 4.49176 11.9712 3.94816 10.352 3.93716H10.3511ZM6.69737 4.57426C6.50122 4.54727 6.30156 4.58495 6.12902 4.68151L6.1198 4.68334C5.72306 4.90976 5.36691 5.19852 5.06244 5.53769C5.0606 5.54136 5.0569 5.54136 5.05506 5.54503C4.80871 5.84112 4.66755 6.12987 4.63064 6.41404C4.62341 6.45642 4.62125 6.4995 4.62418 6.54238C4.62418 6.66705 4.64448 6.78989 4.68415 6.90905L4.69615 6.91822C4.82071 7.35823 5.13256 8.08791 5.80794 9.30527C6.19545 10.0093 6.64109 10.6803 7.14209 11.3091C7.39121 11.6245 7.65877 11.9261 7.94479 12.2112L8.06659 12.3322C8.35261 12.6145 8.65708 12.8822 8.97447 13.1297C9.60793 13.6275 10.2826 14.0713 10.9914 14.4561C12.2167 15.1281 12.9529 15.437 13.394 15.5616L13.4032 15.5745C13.5637 15.6266 13.7336 15.6438 13.9014 15.6249C14.1874 15.5919 14.4799 15.4507 14.7761 15.2032C14.7798 15.2032 14.7789 15.2014 14.7835 15.1986C15.1248 14.8961 15.4136 14.5386 15.6415 14.1463L15.6443 14.1371C15.8519 13.7411 15.7827 13.3653 15.4782 13.1104C15.4745 13.1104 14.8342 12.5787 14.5214 12.3496C14.1893 12.1158 13.8479 11.8986 13.4945 11.6987C13.024 11.4375 12.5424 11.6016 12.3431 11.8582L11.9306 12.3752C11.7184 12.6347 11.3245 12.6007 11.3245 12.6007C8.44579 11.8711 7.67538 8.97526 7.67538 8.97526C7.67538 8.97526 7.64124 8.58475 7.9042 8.37392L8.42365 7.96324C8.67922 7.76615 8.84438 7.28764 8.5805 6.81922C8.3801 6.46748 8.16145 6.12631 7.92542 5.79711C7.67764 5.47497 7.4223 5.15862 7.15962 4.84835C7.04392 4.70439 6.87915 4.60754 6.69645 4.57609L6.69737 4.57426ZM10.8401 5.38094C10.7659 5.37875 10.6939 5.40592 10.64 5.45646C10.586 5.507 10.5544 5.57678 10.5522 5.65045C10.55 5.72411 10.5773 5.79563 10.6282 5.84926C10.6791 5.9029 10.7493 5.93426 10.8235 5.93645C11.8937 6.01437 12.6844 6.36363 13.2639 6.99064C13.8451 7.62132 14.1219 8.38767 14.0998 9.34652C14.1038 9.41702 14.1345 9.48341 14.1856 9.53245C14.2367 9.58149 14.3046 9.60956 14.3756 9.61106C14.4467 9.61257 14.5157 9.58739 14.5689 9.54056C14.6221 9.49374 14.6556 9.4287 14.6626 9.35844C14.6857 8.28133 14.3544 7.34815 13.6781 6.61388C12.9954 5.87137 12.0386 5.46528 10.8641 5.38002H10.8419L10.8401 5.38094ZM11.2673 6.87514C11.1962 6.87617 11.1282 6.90387 11.0768 6.95267C11.0255 7.00147 10.9946 7.06776 10.9905 7.13823C10.9831 7.29131 11.1012 7.4224 11.2562 7.43156C11.7387 7.45723 12.0635 7.59198 12.2831 7.81841C12.5045 8.04299 12.6411 8.38675 12.6669 8.88543C12.6764 8.95454 12.7117 9.0176 12.7657 9.06215C12.8197 9.1067 12.8886 9.1295 12.9587 9.12605C13.0288 9.12259 13.0951 9.09313 13.1444 9.04349C13.1938 8.99385 13.2225 8.92764 13.2251 8.85793C13.1974 8.26758 13.0267 7.77807 12.69 7.43065C12.3514 7.08414 11.8661 6.90447 11.2876 6.87422H11.2709L11.2673 6.87514Z" fill="white"/>
</svg>
