<svg width="48" height="48" viewBox="0 0 48 48" fill="none" xmlns="http://www.w3.org/2000/svg">
<circle cx="23.8938" cy="23.8938" r="23.8938" fill="#418CFE"/>
<path d="M24.4354 12.7C23.598 12.7 23.281 13.3686 23.3457 14.6664C23.3883 15.5211 23.6769 17.9039 22.4689 19.1119C21.3429 20.2378 21.0149 20.1385 19.7329 21.5908C18.4508 23.0432 17.3816 22.7452 15.8867 22.6159C14.0069 22.455 14.6472 32.8835 15.9718 32.7037C16.9117 32.576 19.05 32.3189 19.3907 32.3189C19.7329 32.3189 22.0778 34.1356 24.1358 34.1561C27.4694 34.1908 29.3082 33.601 29.3082 33.601L30.2843 31.3854L30.6108 24.6281L29.0511 21.3764C29.0511 21.3764 26.9569 21.7186 26.3577 20.7787C25.76 19.8389 26.8276 18.6845 26.8276 15.9911C26.8276 13.2976 24.8627 12.7 24.4354 12.7Z" fill="url(#paint0_linear_7_631)"/>
<path d="M29.4248 33.5803L29.2986 33.1182C28.9233 33.0788 28.4392 33.2491 27.78 33.2444C24.6277 33.2207 21.6141 32.3156 20.321 31.2921C19.4742 30.6219 19.1036 29.7293 18.5044 29.9864C17.7663 30.3034 15.6721 30.7954 14.901 29.8208C15.117 31.4892 15.5018 32.7697 15.9718 32.7051C16.9116 32.5773 19.05 32.3203 19.3906 32.3203C19.7328 32.3203 22.0115 34.0896 24.1357 34.1574C26.8828 34.2473 29.3223 33.7742 29.3223 33.7742L29.4248 33.5803Z" fill="url(#paint1_linear_7_631)"/>
<path d="M26.3592 20.7787C25.7615 19.8389 26.8292 18.6845 26.8292 15.9911C26.8292 13.2976 24.8627 12.7 24.4353 12.7C24.3234 12.7 24.2224 12.7126 24.1326 12.7362C25.8767 12.845 26.9269 15.0449 26.3245 17.3126C25.8372 19.1529 25.5944 20.6274 26.3908 21.4931C26.9064 22.0529 27.9299 21.9583 29.0511 21.3764C29.0511 21.3764 26.9569 21.7186 26.3592 20.7787Z" fill="url(#paint2_linear_7_631)"/>
<path d="M26.4759 21.7378C25.4493 22.08 22.86 22.8842 20.8967 24.6631C15.9245 29.1732 24.4148 29.7377 26.1669 33.5934C26.5027 34.3314 28.4613 29.7267 28.4613 29.7267L29.0953 28.6607L27.2644 23.7862L26.4759 21.7378Z" fill="url(#paint3_linear_7_631)"/>
<path d="M26.6273 22.1287C25.6007 22.4709 21.4108 25.1549 21.4108 26.4811C21.4108 30.3068 24.3124 28.4192 25.8814 32.9324C26.0991 33.5569 26.8655 34.0836 26.8655 34.0836C27.501 33.5648 28.4629 29.7296 28.4629 29.7296L29.0969 28.6636L27.266 23.7892L26.6273 22.1287Z" fill="url(#paint4_linear_7_631)"/>
<path d="M28.9944 33.8536L30.9577 31.6096L31.3898 22.233L26.476 21.7378C25.3485 22.3449 25.2176 23.176 25.6371 24.5085C25.8137 25.0699 25.0961 25.2307 25.0504 26.8645C25.0189 27.9968 25.76 28.0031 25.76 28.339C25.76 28.6748 25.391 28.6449 25.268 29.621C25.093 31.0166 26.2615 31.0434 26.2615 31.3415C26.2615 31.6395 25.6118 31.8177 25.6528 32.9547C25.7033 34.3977 23.024 34.1059 21.2137 32.7923C20.4693 32.253 19.8212 32.1978 19.3134 32.3192C19.345 32.3176 19.3718 32.3161 19.3923 32.3161C19.7345 32.3161 22.0305 34.1532 24.1373 34.1532C26.599 34.1564 28.3021 34.0129 28.9944 33.8536Z" fill="url(#paint5_linear_7_631)"/>
<path d="M29.4454 22.3557C27.9283 22.3557 27.0941 23.838 27.6713 24.9782C28.2484 26.1183 26.6021 27.6259 26.774 28.3671C26.9443 29.1098 27.2439 30.988 27.4789 31.2987C27.7139 31.6093 27.0941 32.3142 27.0941 32.3142L29.018 32.5492L30.8126 31.7576L30.7479 26.3296L30.9403 22.9313L29.4454 22.3557Z" fill="url(#paint6_linear_7_631)"/>
<path d="M24.4354 12.7C23.5981 12.7 23.2811 13.3686 23.3457 14.6664C23.3883 15.5211 23.6769 17.9039 22.4689 19.1119C21.343 20.2378 21.015 20.1369 19.7329 21.5908C18.9003 22.5354 18.1576 22.7389 17.3296 22.731C16.8834 22.7263 16.4118 22.6616 15.8867 22.6159C15.8867 22.9407 15.9814 22.9328 17.2208 23.2751C17.3627 23.3145 17.4968 23.3413 17.6277 23.3571C17.6908 23.5542 17.7255 23.7529 17.7176 23.95C17.6718 25.0302 17.91 26.3596 18.0913 24.9766C18.1623 24.4404 18.3815 23.838 18.6953 23.2309C19.1652 23.0432 19.5453 22.6916 19.8828 22.2816C20.512 21.5167 21.0576 20.8387 22.6392 19.8136C24.2209 18.787 24.0175 15.9674 23.8898 15.026C23.7621 14.0845 23.8472 12.7 24.4354 12.7Z" fill="url(#paint7_radial_7_631)"/>
<path d="M30.595 21.3339C28.8004 21.2661 25.5755 21.1636 25.5046 23.0433C25.4525 24.4058 26.4192 24.8537 27.9141 24.9104C29.4091 24.9672 30.1566 24.9956 30.7764 25.0192C31.3961 25.0429 33.3436 25.0303 33.3625 23.3855C33.3862 21.3292 30.595 21.3339 30.595 21.3339Z" fill="url(#paint8_linear_7_631)"/>
<path d="M27.6445 28.1288C27.1635 28.1146 25.7363 28.4757 25.6023 29.3825C25.4967 30.0953 25.8609 31.0178 27.1036 31.2354C28.6774 31.5114 31.3015 31.6549 32.2807 31.289C32.7191 31.125 33.1008 30.6677 33.1197 29.9723C33.1402 29.2768 32.6245 28.3417 31.5017 28.3086C30.3789 28.2755 29.7954 28.2928 29.1568 28.2187C28.3904 28.1256 28.0293 28.1399 27.6445 28.1288Z" fill="url(#paint9_linear_7_631)"/>
<path d="M27.1446 31.2988C26.5989 31.2988 25.9271 31.7798 25.9271 32.5809C25.9271 33.382 26.1353 33.9749 27.3054 34.2005C28.4755 34.4244 30.3505 34.232 31.0554 34.008C31.6042 33.833 31.8092 33.3189 31.8092 32.4689C31.8092 31.6189 31.2809 31.4707 30.7037 31.4707C30.1266 31.4707 29.4264 31.5764 29.0258 31.5543C27.9078 31.496 27.6886 31.2988 27.1446 31.2988Z" fill="url(#paint10_linear_7_631)"/>
<path d="M30.442 21.7141C28.8761 21.6542 26.0597 21.5643 26.0029 23.0498C25.9619 24.1268 26.8071 24.4832 28.1128 24.5337C29.4186 24.5842 32.8532 24.6457 32.8642 23.3447C32.8784 21.7188 30.442 21.7141 30.442 21.7141Z" fill="url(#paint11_linear_7_631)"/>
<path d="M27.7895 28.5107C27.3716 28.4981 26.1983 28.5991 26.0864 29.4648C26.0107 30.0514 26.315 30.8036 27.3968 30.985C28.7688 31.2136 31.0522 31.3351 31.9054 31.0354C32.2854 30.9014 32.6182 30.5277 32.6339 29.9584C32.6497 29.3891 32.1261 28.6905 31.15 28.6637C30.1738 28.6353 29.655 28.7252 29.0968 28.6637C28.4282 28.588 28.1238 28.5218 27.7895 28.5107Z" fill="url(#paint12_linear_7_631)"/>
<path d="M27.3764 31.5903C26.9049 31.5903 26.323 31.9783 26.323 32.6233C26.323 33.2682 26.5027 33.746 27.5152 33.9274C28.5276 34.1087 30.1503 33.9526 30.759 33.7728C31.2337 33.6325 31.4103 33.2178 31.4103 32.5333C31.4103 31.849 30.953 31.7291 30.4531 31.7291C29.9531 31.7291 29.3476 31.8143 29.0022 31.7969C28.0371 31.7496 27.8479 31.5903 27.3764 31.5903Z" fill="url(#paint13_linear_7_631)"/>
<path d="M17.1356 32.5537C15.8741 32.0113 14.6945 24.5838 17.0205 22.7182C16.6657 22.6961 16.292 22.6488 15.8867 22.6141C14.0069 22.4533 14.6472 32.8817 15.9718 32.702C16.2714 32.6625 16.6909 32.6089 17.1356 32.5537Z" fill="url(#paint14_linear_7_631)"/>
<path d="M27.0893 23.0498C27.1287 22.0264 27.944 21.5359 28.9753 21.3088C27.329 21.3467 25.5565 21.6542 25.5029 23.0419C25.4508 24.4044 26.4175 24.8523 27.9125 24.9091C28.0765 24.9154 28.2326 24.9216 28.3792 24.9264C27.5403 24.6819 27.0483 24.13 27.0893 23.0498Z" fill="url(#paint15_linear_7_631)"/>
<path d="M27.2298 21.4949C26.2725 21.7046 25.5377 22.1572 25.503 23.0435C25.4604 24.1773 26.1211 24.6756 27.2045 24.8459C25.0094 23.9691 25.7963 21.8087 27.2298 21.4949Z" fill="url(#paint16_linear_7_631)"/>
<path opacity="0.65" d="M24.6798 32.264C24.4259 32.8459 23.2211 32.8822 21.9863 32.346C20.7531 31.8098 19.9583 30.9015 20.2107 30.3196C20.4646 29.7377 21.6693 29.7014 22.9041 30.2376C24.1373 30.7754 24.9321 31.6821 24.6798 32.264Z" fill="url(#paint17_radial_7_631)"/>
<path opacity="0.75" d="M31.9385 23.3241C31.9259 24.111 30.874 24.4832 29.7244 24.5526C28.783 24.6093 27.739 23.9439 27.7658 23.1759C27.7927 22.4079 27.9299 21.7267 29.8837 21.7945C31.038 21.8355 31.9511 22.5562 31.9385 23.3241Z" fill="url(#paint18_radial_7_631)"/>
<path opacity="0.75" d="M32.1483 30.2375C32.142 31.3256 30.9435 31.1174 29.7939 31.1931C28.3352 31.2893 27.3685 30.8352 27.3669 30.0672C27.3669 29.2992 27.9205 28.7378 29.8775 28.7346C31.0302 28.7331 32.1562 28.8387 32.1483 30.2375Z" fill="url(#paint19_radial_7_631)"/>
<path opacity="0.75" d="M31.0933 32.9827C31.0869 33.9115 29.9988 34.0377 28.9691 34.0377C27.9393 34.0377 26.8197 33.4921 26.8181 32.8376C26.8181 32.1816 27.3133 31.7054 29.0621 31.7022C30.0935 31.6991 31.1012 31.7905 31.0933 32.9827Z" fill="url(#paint20_radial_7_631)"/>
<path d="M26.9396 29.6019C27.1036 28.3624 28.0545 28.4349 29.1442 28.3056C27.8889 28.2126 27.3622 28.1984 27.3622 28.1984C27.2455 28.1873 27.1146 28.1857 26.9774 28.2C26.569 28.2898 26.1069 28.4759 25.8326 28.8228C25.7395 28.9553 25.6638 29.1114 25.6134 29.2975C25.6086 29.3243 25.6039 29.3511 25.5992 29.3795C25.5109 30.0955 25.8578 31.0148 27.1004 31.2325C27.2802 31.264 27.4726 31.294 27.676 31.3208C27.7738 31.3334 27.8795 31.346 27.993 31.3602C28.023 31.3633 28.0545 31.3681 28.0845 31.3712C27.4016 31.0495 26.8197 30.5134 26.9396 29.6019Z" fill="url(#paint21_linear_7_631)"/>
<path d="M27.2439 28.1906C27.1588 28.1875 27.0705 28.1907 26.9774 28.2001C26.5658 28.2916 26.1006 28.4792 25.8262 28.8324C25.7364 28.9634 25.6638 29.1179 25.6149 29.2977C25.6102 29.3245 25.607 29.3513 25.6007 29.3797C25.4746 30.0846 25.8247 30.9156 26.9096 31.19C25.0598 30.1713 25.8499 28.1922 27.2439 28.1906Z" fill="url(#paint22_linear_7_631)"/>
<path d="M28.3225 31.4881C27.7753 31.4076 27.5498 31.2988 27.1446 31.2988C26.5989 31.2988 25.9271 31.7798 25.9271 32.5809C25.9271 32.8726 25.9555 33.136 26.0454 33.3631C26.1369 33.5523 26.2709 33.7289 26.4554 33.8772C26.6573 34.0175 26.9317 34.1279 27.3054 34.1989C27.5561 34.2462 27.8384 34.2761 28.1349 34.2887C27.5624 33.956 26.5942 33.7778 26.7976 32.6661C27.0199 31.4392 27.7532 31.6048 28.3225 31.4881Z" fill="url(#paint23_linear_7_631)"/>
<path d="M27.1193 31.2988C26.5784 31.313 25.9255 31.7908 25.9255 32.5809C25.9255 33.3158 26.1006 33.874 27.031 34.1358C25.5802 33.2022 26.0454 31.63 27.1193 31.2988Z" fill="url(#paint24_linear_7_631)"/>
<path d="M33.361 23.3857C33.3626 23.2012 33.3421 23.0341 33.3027 22.8811C33.4462 23.5229 32.8753 24.1616 31.3583 24.4722C30.3522 24.6772 27.6824 24.9343 25.8342 24.201C26.2332 24.6836 26.9664 24.876 27.9126 24.9122C29.4076 24.969 30.155 24.9974 30.7748 25.021C31.3945 25.0431 33.3421 25.0321 33.361 23.3857Z" fill="url(#paint25_linear_7_631)"/>
<path d="M33.1212 29.9266C33.1196 29.2375 32.6023 28.3386 31.5032 28.3071C30.382 28.274 29.7969 28.2913 29.1583 28.2172C28.3903 28.1273 28.0292 28.1399 27.6444 28.1289C27.3542 28.121 26.6367 28.2077 26.1494 28.5105C26.6982 28.7013 27.5907 28.9868 28.8476 28.9063C31.8596 28.7124 32.7159 29.0767 33.1212 29.9266Z" fill="url(#paint26_linear_7_631)"/>
<path d="M26.9995 25.019C26.3592 25.0064 25.3405 25.3833 25.3137 26.7143C25.2869 28.0452 26.4507 28.3622 26.9632 28.3717C27.4757 28.3811 29.2687 28.5041 31.4812 28.5483C33.6937 28.5924 33.9886 27.405 34.0012 26.7837C34.0138 26.1624 33.6196 25.0364 32.2886 25.0096C28.444 24.9323 26.9995 25.019 26.9995 25.019Z" fill="url(#paint27_linear_7_631)"/>
<path d="M27.3433 25.4041C26.7866 25.3931 25.902 25.6817 25.8815 26.7083C25.861 27.7349 26.8734 27.9825 27.3197 27.9904C27.7659 27.9998 29.1584 28.2158 31.2463 28.1354C33.1686 28.0613 33.4241 27.2586 33.4335 26.7792C33.443 26.2998 33.3768 25.4309 32.2208 25.4073C28.8777 25.3426 27.3433 25.4041 27.3433 25.4041Z" fill="url(#paint28_linear_7_631)"/>
<path d="M26.6888 26.5848C26.7535 25.2192 27.706 25.2145 28.783 24.9795C27.5246 24.9874 26.9979 25.0189 26.9979 25.0189C26.3577 25.0063 25.339 25.3832 25.3122 26.7141C25.2853 28.0451 26.4491 28.3621 26.9617 28.3715C27.1462 28.3747 27.4978 28.3936 27.9756 28.4173C27.2676 28.1239 26.6415 27.5893 26.6888 26.5848Z" fill="url(#paint29_linear_7_631)"/>
<path opacity="0.75" d="M32.8753 26.7271C32.9195 27.8152 31.7115 28.0202 30.5603 28.0754C29.4091 28.1306 28.1286 27.5487 28.0924 26.7807C28.0561 26.0127 28.5828 25.4277 30.5382 25.3331C31.6878 25.2763 32.8185 25.3299 32.8753 26.7271Z" fill="url(#paint30_radial_7_631)"/>
<path d="M26.8797 25.0208C26.2394 25.0554 25.339 25.4639 25.3137 26.7128C25.2885 27.9776 26.3388 28.3261 26.8828 28.3671C24.776 27.5171 25.4667 25.1453 26.8797 25.0208Z" fill="url(#paint31_linear_7_631)"/>
<path d="M33.998 26.6499C33.7204 28.618 28.5149 28.2584 25.7031 27.8358C26.0832 28.2426 26.6478 28.3656 26.9631 28.3719C27.4756 28.383 29.2686 28.5044 31.4811 28.5485C33.692 28.5927 33.9885 27.4053 34.0011 26.784C34.0027 26.7414 34.0011 26.6956 33.998 26.6499Z" fill="url(#paint32_linear_7_631)"/>
<path d="M31.3913 31.0322C30.3837 31.0764 27.7155 31.4075 25.7711 30.3667C25.9871 30.7705 26.4082 31.1126 27.1036 31.2341C28.6774 31.51 31.3015 31.6536 32.2808 31.2877C32.7191 31.1237 33.1008 30.6664 33.1197 29.9709C33.0566 30.5749 32.481 30.9849 31.3913 31.0322Z" fill="url(#paint33_linear_7_631)"/>
<path d="M31.7304 33.2192C31.0696 33.7223 29.9279 34.0187 28.2815 33.7396C27.2644 33.5677 26.5674 33.5094 26.1085 33.4968C26.2914 33.8279 26.6463 34.0723 27.3054 34.1985C28.4755 34.4224 30.3505 34.2301 31.0554 34.0061C31.4166 33.891 31.6279 33.6276 31.7304 33.2192Z" fill="url(#paint34_linear_7_631)"/>
<path d="M26.1416 31.8601C27.3622 31.4154 27.9598 32.0746 29.2672 32.0746C30.6233 32.0746 31.2699 31.5274 31.7509 32.0478C31.5994 31.5668 31.1658 31.4706 30.7022 31.4706C30.125 31.4706 29.4248 31.5763 29.0243 31.5542C27.9078 31.4958 27.6886 31.2971 27.143 31.2971C26.7913 31.2987 26.3845 31.5006 26.1416 31.8601Z" fill="url(#paint35_linear_7_631)"/>
<path d="M15.9718 32.7039C16.9117 32.5761 19.0485 32.3191 19.3907 32.3191C16.2904 30.1035 17.6686 25.3915 18.8135 23.0071C18.9743 22.6728 19.0737 22.3984 19.1257 22.165C18.0944 22.952 17.1404 22.7249 15.8851 22.616C14.0069 22.4552 14.6487 32.8836 15.9718 32.7039Z" fill="url(#paint36_linear_7_631)"/>
<path d="M17.9272 30.5624C17.6071 30.135 17.8846 31.0544 18.1417 31.7167C18.3593 32.2813 16.6877 31.9469 15.4072 32.0857C15.5744 32.4989 15.7652 32.7323 15.9733 32.7039C16.9132 32.5761 19.05 32.3191 19.3922 32.3191C18.9097 31.9091 18.2473 30.9897 17.9272 30.5624Z" fill="url(#paint37_radial_7_631)"/>
<path d="M19.3922 32.3192C19.1257 32.0937 18.8056 31.712 18.517 31.343C18.517 31.343 16.9605 32.1394 15.2921 31.764C15.4845 32.3728 15.7148 32.7386 15.9718 32.7024C16.9132 32.5746 19.05 32.3192 19.3922 32.3192Z" fill="url(#paint38_linear_7_631)"/>
<path opacity="0.75" d="M25.432 17.0683C24.8233 17.1992 24.3297 16.3587 24.0506 15.3762C23.8219 14.5736 24.1326 13.5517 24.7303 13.435C25.3279 13.3199 25.8814 13.3151 26.211 15.0167C26.405 16.0212 26.0281 16.9406 25.432 17.0683Z" fill="url(#paint39_radial_7_631)"/>
<path d="M27.1194 31.299C26.7835 31.3337 26.4807 31.5135 26.2726 31.761C26.0613 32.0102 25.9619 32.3351 25.984 32.6631C25.9856 32.9911 26.036 33.3285 26.2221 33.5951C26.4066 33.8631 26.7173 34.024 27.0311 34.1359C26.7078 34.0634 26.3703 33.9294 26.1527 33.6455C25.9335 33.3648 25.8815 33.0006 25.872 32.6646C25.8578 32.3224 25.9666 31.9566 26.2095 31.7043C26.4429 31.4488 26.7819 31.2927 27.1194 31.299Z" fill="#804B24"/>
<path d="M26.5816 28.3167C26.3608 28.4128 26.1574 28.5437 25.9886 28.7062C25.8167 28.867 25.7253 29.0878 25.6638 29.3117V29.3086C25.5833 29.717 25.6511 30.1507 25.8908 30.4913C26.1258 30.835 26.5043 31.0606 26.9096 31.1914C26.4932 31.111 26.0738 30.9092 25.812 30.548C25.6811 30.3698 25.5912 30.1633 25.5486 29.9457C25.5045 29.728 25.525 29.5009 25.566 29.2896L25.5676 29.2865C25.6338 29.0515 25.7505 28.8166 25.9429 28.6573C26.1274 28.4917 26.3545 28.3908 26.5816 28.3167Z" fill="#804B24"/>
<path d="M26.8797 25.0208C26.4839 25.0665 26.1007 25.2305 25.8263 25.508C25.5519 25.7856 25.4037 26.1672 25.38 26.5567C25.3406 26.9446 25.4037 27.3483 25.6244 27.67C25.8436 27.9933 26.2 28.2094 26.5832 28.3213C26.1921 28.2504 25.8026 28.0564 25.555 27.7205C25.3027 27.3878 25.2349 26.9494 25.2696 26.5473C25.3027 26.142 25.462 25.7288 25.7679 25.4465C26.0691 25.1611 26.4807 25.0239 26.8797 25.0208Z" fill="#804B24"/>
<path d="M27.2313 21.4944C26.8071 21.6095 26.3861 21.7704 26.0518 22.0447C25.7143 22.3176 25.5329 22.7402 25.5613 23.1723C25.555 23.6012 25.6954 24.0396 26.0234 24.325C26.3451 24.6136 26.7787 24.7524 27.2077 24.8439C26.7724 24.7934 26.3214 24.683 25.9666 24.3897C25.6039 24.0995 25.4509 23.6185 25.4494 23.1739C25.4257 22.7213 25.6291 22.2482 25.9981 21.9769C26.3593 21.701 26.7976 21.5701 27.2313 21.4944Z" fill="#804B24"/>
<path d="M25.7711 30.3667C26.0628 30.8713 26.6226 31.1331 27.1777 31.2088C27.7407 31.2955 28.31 31.3554 28.8777 31.3917C29.4454 31.4406 30.0162 31.469 30.5871 31.4674C30.8725 31.4643 31.158 31.4564 31.4402 31.428C31.7241 31.4059 32.0095 31.376 32.2823 31.2861C31.743 31.4879 31.158 31.5211 30.5887 31.54C30.0162 31.5542 29.4422 31.5384 28.8698 31.5005C28.2989 31.4517 27.7296 31.3791 27.1651 31.2798C26.8812 31.2325 26.5974 31.1457 26.3498 30.9943C26.1022 30.8429 25.8988 30.6222 25.7711 30.3667Z" fill="#804B24"/>
<path d="M25.7033 27.8342C25.9209 28.0518 26.2032 28.1954 26.4965 28.2679C26.7883 28.3546 27.0958 28.3357 27.4048 28.3499L29.2483 28.4035L31.0918 28.495C31.7037 28.5328 32.325 28.5407 32.9116 28.3404C32.3408 28.5833 31.6989 28.6038 31.0902 28.5707L29.2468 28.5171L27.4033 28.4256C27.1005 28.4051 26.782 28.4193 26.4823 28.3215C26.1859 28.2285 25.9083 28.0645 25.7033 27.8342Z" fill="#804B24"/>
<path d="M32.2902 25.0098C31.8486 25.0113 31.4087 25.024 30.9671 25.0192L29.644 25.0224L28.3226 25.0413C27.8826 25.0444 27.4411 25.046 27.0026 25.0634H26.9995C26.5658 25.0555 26.1164 25.2037 25.8041 25.5144C25.4856 25.8219 25.3358 26.2682 25.3153 26.7145C25.3184 26.4905 25.3421 26.2666 25.4115 26.0506C25.4809 25.8345 25.5991 25.6342 25.76 25.4718C26.0817 25.1422 26.5437 24.9782 27.0011 24.9766H26.9979C27.881 24.923 28.7625 24.923 29.6456 24.9372C30.5272 24.9451 31.4087 24.9609 32.2902 25.0098Z" fill="#804B24"/>
<defs>
<linearGradient id="paint0_linear_7_631" x1="29.1208" y1="23.2505" x2="22.6908" y2="23.5086" gradientUnits="userSpaceOnUse">
<stop offset="0.00132565" stop-color="#F0C492"/>
<stop offset="1" stop-color="#F8DBBA"/>
</linearGradient>
<linearGradient id="paint1_linear_7_631" x1="23.7152" y1="25.6172" x2="19.6013" y2="41.7363" gradientUnits="userSpaceOnUse">
<stop offset="0.3118" stop-color="#F0C492" stop-opacity="0"/>
<stop offset="1" stop-color="#E6AF74"/>
</linearGradient>
<linearGradient id="paint2_linear_7_631" x1="17.8508" y1="16.6818" x2="30.2568" y2="17.6114" gradientUnits="userSpaceOnUse">
<stop offset="0.3118" stop-color="#F0C492" stop-opacity="0"/>
<stop offset="1" stop-color="#E6AF74"/>
</linearGradient>
<linearGradient id="paint3_linear_7_631" x1="14.0612" y1="27.7066" x2="32.0139" y2="27.7066" gradientUnits="userSpaceOnUse">
<stop offset="0.3118" stop-color="#F0C492" stop-opacity="0"/>
<stop offset="1" stop-color="#E6AF74"/>
</linearGradient>
<linearGradient id="paint4_linear_7_631" x1="13.9758" y1="28.1057" x2="30.6119" y2="28.1057" gradientUnits="userSpaceOnUse">
<stop offset="0.3118" stop-color="#F0C492" stop-opacity="0"/>
<stop offset="1" stop-color="#E6AF74"/>
</linearGradient>
<linearGradient id="paint5_linear_7_631" x1="10.8169" y1="27.7804" x2="44.1559" y2="28.1651" gradientUnits="userSpaceOnUse">
<stop stop-color="#D2A374" stop-opacity="0"/>
<stop offset="1" stop-color="#B88653"/>
</linearGradient>
<linearGradient id="paint6_linear_7_631" x1="26.199" y1="27.8416" x2="30.6373" y2="27.2585" gradientUnits="userSpaceOnUse">
<stop stop-color="#643800" stop-opacity="0"/>
<stop offset="1" stop-color="#643800"/>
</linearGradient>
<radialGradient id="paint7_radial_7_631" cx="0" cy="0" r="1" gradientUnits="userSpaceOnUse" gradientTransform="translate(16.4962 18.1111) scale(9.383)">
<stop stop-color="#F0C492" stop-opacity="0"/>
<stop offset="1" stop-color="#F0C492"/>
</radialGradient>
<linearGradient id="paint8_linear_7_631" x1="29.3579" y1="25.0941" x2="29.6999" y2="16.5884" gradientUnits="userSpaceOnUse">
<stop offset="0.00132565" stop-color="#F0C492"/>
<stop offset="1" stop-color="#F8DBBA"/>
</linearGradient>
<linearGradient id="paint9_linear_7_631" x1="33.0578" y1="29.8172" x2="26.7561" y2="29.8172" gradientUnits="userSpaceOnUse">
<stop offset="0.00132565" stop-color="#F0C492"/>
<stop offset="1" stop-color="#F8DBBA"/>
</linearGradient>
<linearGradient id="paint10_linear_7_631" x1="33.0578" y1="32.799" x2="26.7596" y2="32.799" gradientUnits="userSpaceOnUse">
<stop offset="0.00132565" stop-color="#F0C492"/>
<stop offset="1" stop-color="#F8DBBA"/>
</linearGradient>
<linearGradient id="paint11_linear_7_631" x1="24.8809" y1="23.2194" x2="28.1613" y2="23.1446" gradientUnits="userSpaceOnUse">
<stop offset="0.00132565" stop-color="#F0C492"/>
<stop offset="1" stop-color="#EFD8B7"/>
</linearGradient>
<linearGradient id="paint12_linear_7_631" x1="31.6473" y1="29.8621" x2="28.3033" y2="29.8621" gradientUnits="userSpaceOnUse">
<stop offset="0.00132565" stop-color="#F0C492"/>
<stop offset="1" stop-color="#EFD8B7"/>
</linearGradient>
<linearGradient id="paint13_linear_7_631" x1="31.0378" y1="36.2483" x2="25.4599" y2="27.0587" gradientUnits="userSpaceOnUse">
<stop offset="0.00132565" stop-color="#F0C492"/>
<stop offset="1" stop-color="#EFD8B7"/>
</linearGradient>
<linearGradient id="paint14_linear_7_631" x1="16.7089" y1="27.6598" x2="14.7385" y2="27.6598" gradientUnits="userSpaceOnUse">
<stop offset="0.3118" stop-color="#F0C492" stop-opacity="0"/>
<stop offset="1" stop-color="#E6AF74"/>
</linearGradient>
<linearGradient id="paint15_linear_7_631" x1="27.5653" y1="23.1191" x2="25.7811" y2="23.1191" gradientUnits="userSpaceOnUse">
<stop offset="0.3118" stop-color="#F0C492" stop-opacity="0"/>
<stop offset="1" stop-color="#E6AF74"/>
</linearGradient>
<linearGradient id="paint16_linear_7_631" x1="27.2449" y1="23.1703" x2="25.193" y2="23.1703" gradientUnits="userSpaceOnUse">
<stop offset="0.3118" stop-color="#F0C492" stop-opacity="0"/>
<stop offset="1" stop-color="#E6AF74"/>
</linearGradient>
<radialGradient id="paint17_radial_7_631" cx="0" cy="0" r="1" gradientUnits="userSpaceOnUse" gradientTransform="translate(22.2879 30.8429) rotate(23.5256) scale(2.50382 1.16248)">
<stop stop-color="#F8E6D2"/>
<stop offset="0.7237" stop-color="#F8E6D2" stop-opacity="0"/>
</radialGradient>
<radialGradient id="paint18_radial_7_631" cx="0" cy="0" r="1" gradientUnits="userSpaceOnUse" gradientTransform="translate(29.8837 23.181) rotate(2.02715) scale(2.14215 1.40598)">
<stop stop-color="#F8E6D2"/>
<stop offset="1" stop-color="#F8E6D2" stop-opacity="0"/>
</radialGradient>
<radialGradient id="paint19_radial_7_631" cx="0" cy="0" r="1" gradientUnits="userSpaceOnUse" gradientTransform="translate(29.762 30.0824) rotate(-0.054387) scale(2.30127 1.2401)">
<stop stop-color="#F8E6D2"/>
<stop offset="1" stop-color="#F8E6D2" stop-opacity="0"/>
</radialGradient>
<radialGradient id="paint20_radial_7_631" cx="0" cy="0" r="1" gradientUnits="userSpaceOnUse" gradientTransform="translate(28.9559 32.8698) rotate(-0.0539336) scale(2.10732 1.3182)">
<stop stop-color="#F8E6D2"/>
<stop offset="1" stop-color="#F8E6D2" stop-opacity="0"/>
</radialGradient>
<linearGradient id="paint21_linear_7_631" x1="27.7792" y1="29.7817" x2="25.1932" y2="29.7817" gradientUnits="userSpaceOnUse">
<stop offset="0.3118" stop-color="#F0C492" stop-opacity="0"/>
<stop offset="1" stop-color="#E6AF74"/>
</linearGradient>
<linearGradient id="paint22_linear_7_631" x1="27.2295" y1="29.6915" x2="25.8366" y2="29.6915" gradientUnits="userSpaceOnUse">
<stop offset="0.3118" stop-color="#F0C492" stop-opacity="0"/>
<stop offset="1" stop-color="#E6AF74"/>
</linearGradient>
<linearGradient id="paint23_linear_7_631" x1="27.6862" y1="32.816" x2="24.6621" y2="32.2603" gradientUnits="userSpaceOnUse">
<stop offset="0.3118" stop-color="#F0C492" stop-opacity="0"/>
<stop offset="1" stop-color="#E6AF74"/>
</linearGradient>
<linearGradient id="paint24_linear_7_631" x1="27.3734" y1="32.7172" x2="26.0952" y2="32.7172" gradientUnits="userSpaceOnUse">
<stop offset="0.3118" stop-color="#F0C492" stop-opacity="0"/>
<stop offset="1" stop-color="#E6AF74"/>
</linearGradient>
<linearGradient id="paint25_linear_7_631" x1="29.4112" y1="22.7684" x2="30.2233" y2="26.7007" gradientUnits="userSpaceOnUse">
<stop stop-color="#E6AF74" stop-opacity="0"/>
<stop offset="1" stop-color="#E6AF74"/>
</linearGradient>
<linearGradient id="paint26_linear_7_631" x1="29.5126" y1="30.6373" x2="29.8012" y2="27.3034" gradientUnits="userSpaceOnUse">
<stop stop-color="#D2A374" stop-opacity="0"/>
<stop offset="1" stop-color="#B88653"/>
</linearGradient>
<linearGradient id="paint27_linear_7_631" x1="33.0578" y1="26.7632" x2="26.7596" y2="26.7632" gradientUnits="userSpaceOnUse">
<stop offset="0.00132565" stop-color="#F0C492"/>
<stop offset="1" stop-color="#F8DBBA"/>
</linearGradient>
<linearGradient id="paint28_linear_7_631" x1="29.4408" y1="28.9321" x2="30.0392" y2="22.8841" gradientUnits="userSpaceOnUse">
<stop offset="0.00132565" stop-color="#F0C492"/>
<stop offset="1" stop-color="#EFD8B7"/>
</linearGradient>
<linearGradient id="paint29_linear_7_631" x1="28.3882" y1="26.698" x2="24.7837" y2="26.698" gradientUnits="userSpaceOnUse">
<stop offset="0.3118" stop-color="#F0C492" stop-opacity="0"/>
<stop offset="1" stop-color="#E6AF74"/>
</linearGradient>
<radialGradient id="paint30_radial_7_631" cx="0" cy="0" r="1" gradientUnits="userSpaceOnUse" gradientTransform="translate(30.4756 26.7065) rotate(-2.73441) scale(2.44506 1.60397)">
<stop stop-color="#F8E6D2"/>
<stop offset="1" stop-color="#F8E6D2" stop-opacity="0"/>
</radialGradient>
<linearGradient id="paint31_linear_7_631" x1="26.7128" y1="26.6938" x2="25.5747" y2="26.6938" gradientUnits="userSpaceOnUse">
<stop offset="0.3118" stop-color="#F0C492" stop-opacity="0"/>
<stop offset="1" stop-color="#E6AF74"/>
</linearGradient>
<linearGradient id="paint32_linear_7_631" x1="29.7099" y1="26.3472" x2="30.3938" y2="30.6962" gradientUnits="userSpaceOnUse">
<stop stop-color="#E6AF74" stop-opacity="0"/>
<stop offset="1" stop-color="#E6AF74"/>
</linearGradient>
<linearGradient id="paint33_linear_7_631" x1="29.2356" y1="29.7116" x2="30.9881" y2="33.5156" gradientUnits="userSpaceOnUse">
<stop stop-color="#E6AF74" stop-opacity="0"/>
<stop offset="1" stop-color="#E6AF74"/>
</linearGradient>
<linearGradient id="paint34_linear_7_631" x1="28.8863" y1="33.048" x2="29.1428" y2="35.4523" gradientUnits="userSpaceOnUse">
<stop stop-color="#E6AF74" stop-opacity="0"/>
<stop offset="1" stop-color="#E6AF74"/>
</linearGradient>
<linearGradient id="paint35_linear_7_631" x1="28.9468" y1="32.6835" x2="28.9468" y2="30.9443" gradientUnits="userSpaceOnUse">
<stop stop-color="#FFBA47" stop-opacity="0"/>
<stop offset="1" stop-color="#C66F34"/>
</linearGradient>
<linearGradient id="paint36_linear_7_631" x1="17.1994" y1="27.8822" x2="11.7498" y2="36.1208" gradientUnits="userSpaceOnUse">
<stop offset="0.3118" stop-color="#F0C492" stop-opacity="0"/>
<stop offset="1" stop-color="#D2A374"/>
</linearGradient>
<radialGradient id="paint37_radial_7_631" cx="0" cy="0" r="1" gradientUnits="userSpaceOnUse" gradientTransform="translate(17.4133 31.5636) scale(1.61837)">
<stop stop-color="#F0C492" stop-opacity="0"/>
<stop offset="1" stop-color="#F0C492"/>
</radialGradient>
<linearGradient id="paint38_linear_7_631" x1="17.3834" y1="30.4557" x2="17.2552" y2="35.3604" gradientUnits="userSpaceOnUse">
<stop stop-color="#F0C492" stop-opacity="0"/>
<stop offset="1" stop-color="#E6AF74"/>
</linearGradient>
<radialGradient id="paint39_radial_7_631" cx="0" cy="0" r="1" gradientUnits="userSpaceOnUse" gradientTransform="translate(25.1361 15.2424) rotate(79.0631) scale(1.8269 1.07229)">
<stop stop-color="#F8E6D2"/>
<stop offset="1" stop-color="#F8E6D2" stop-opacity="0"/>
</radialGradient>
</defs>
</svg>
