<svg width="49" height="48" viewBox="0 0 49 48" fill="none" xmlns="http://www.w3.org/2000/svg">
<path d="M24.918 42.4802C35.0169 42.4802 43.2038 34.2933 43.2038 24.1944C43.2038 14.0955 35.0169 5.90869 24.918 5.90869C14.8191 5.90869 6.63232 14.0955 6.63232 24.1944C6.63232 34.2933 14.8191 42.4802 24.918 42.4802Z" fill="url(#paint0_radial_7_690)"/>
<path opacity="0.5" d="M24.918 42.4802C35.0169 42.4802 43.2038 34.2933 43.2038 24.1944C43.2038 14.0955 35.0169 5.90869 24.918 5.90869C14.8191 5.90869 6.63232 14.0955 6.63232 24.1944C6.63232 34.2933 14.8191 42.4802 24.918 42.4802Z" fill="url(#paint1_radial_7_690)"/>
<path opacity="0.5" d="M24.918 42.4802C35.0169 42.4802 43.2038 34.2933 43.2038 24.1944C43.2038 14.0955 35.0169 5.90869 24.918 5.90869C14.8191 5.90869 6.63232 14.0955 6.63232 24.1944C6.63232 34.2933 14.8191 42.4802 24.918 42.4802Z" fill="url(#paint2_radial_7_690)"/>
<path opacity="0.5" d="M24.918 42.4802C35.0169 42.4802 43.2038 34.2933 43.2038 24.1944C43.2038 14.0955 35.0169 5.90869 24.918 5.90869C14.8191 5.90869 6.63232 14.0955 6.63232 24.1944C6.63232 34.2933 14.8191 42.4802 24.918 42.4802Z" fill="url(#paint3_radial_7_690)"/>
<path d="M24.918 36.3545C19.6494 36.3545 17.9694 30.7088 19.5694 31.5887C21.7179 32.7773 23.0894 32.8916 24.918 32.8916C26.7465 32.8916 28.1065 32.7773 30.2665 31.5887C31.8665 30.7088 30.1865 36.3545 24.918 36.3545Z" fill="#643800"/>
<path d="M30.2666 31.5886C28.1181 32.7772 26.7466 32.8915 24.9181 32.8915C23.0895 32.8915 21.7295 32.7772 19.5695 31.5886C19.0095 31.28 18.8495 31.7601 19.1009 32.5258C19.1009 32.5144 19.1809 31.6915 19.9352 32.2629C19.9352 32.2629 22.7124 33.9315 24.9066 33.9315C27.1009 33.9315 29.878 32.2629 29.878 32.2629C30.6324 31.7029 30.7123 32.5144 30.7123 32.5258C30.9866 31.7715 30.8266 31.28 30.2666 31.5886Z" fill="url(#paint4_linear_7_690)"/>
<path d="M20.9294 17.5316C21.0322 16.8002 20.3008 16.2402 18.9522 16.0688C17.7979 15.9202 15.2036 16.2059 13.1579 18.2059C12.7808 18.5716 13.2494 18.8688 13.5922 18.6402C14.7808 17.8745 17.7979 17.0973 19.9922 17.6345C20.8837 17.8516 20.9294 17.5316 20.9294 17.5316Z" fill="url(#paint5_linear_7_690)"/>
<path d="M28.9067 17.5316C28.8038 16.8002 29.5352 16.2402 30.8838 16.0688C32.0381 15.9202 34.6323 16.2059 36.678 18.2059C37.0552 18.5716 36.5867 18.8688 36.2438 18.6402C35.0552 17.8745 32.0381 17.0973 29.8438 17.6345C28.9524 17.8516 28.9067 17.5316 28.9067 17.5316Z" fill="url(#paint6_linear_7_690)"/>
<path d="M32.4952 21.9772C32.4952 21.9772 35.5123 22.5029 36.1866 24.8572C36.2323 25.0058 36.2438 25.1658 36.2323 25.3143C36.2095 25.6229 35.9009 25.92 35.3866 25.5886C32.1866 23.52 30.2095 24.24 28.7352 24.7429C28.1638 24.9372 27.7066 24.3315 27.9124 23.8515C27.9695 23.7143 28.0152 23.5658 28.1066 23.4401C29.4781 21.4401 32.4952 21.9772 32.4952 21.9772Z" fill="url(#paint7_radial_7_690)"/>
<path d="M32.3696 22.6972C32.3696 22.6972 34.8267 23.1201 36.221 25.1315C36.2096 25.0401 36.1981 24.9486 36.1753 24.8572C35.501 22.5029 32.4838 21.9772 32.4838 21.9772C32.4838 21.9772 29.4781 21.4401 28.0838 23.4286C28.0267 23.5086 27.9924 23.5886 27.9581 23.6686C29.9238 22.2629 32.3696 22.6972 32.3696 22.6972Z" fill="url(#paint8_linear_7_690)"/>
<path d="M17.341 21.9772C17.341 21.9772 14.3238 22.5029 13.6495 24.8572C13.6038 25.0058 13.5923 25.1658 13.6038 25.3143C13.6267 25.6229 13.9352 25.92 14.4495 25.5886C17.6495 23.52 19.6267 24.24 21.1009 24.7429C21.6724 24.9372 22.1295 24.3315 21.9238 23.8515C21.8666 23.7143 21.8209 23.5658 21.7295 23.4401C20.3581 21.4401 17.341 21.9772 17.341 21.9772Z" fill="url(#paint9_radial_7_690)"/>
<path d="M17.4666 22.6972C17.4666 22.6972 15.0095 23.1201 13.6152 25.1315C13.6266 25.0401 13.6381 24.9486 13.661 24.8572C14.3352 22.5029 17.3524 21.9772 17.3524 21.9772C17.3524 21.9772 20.3581 21.4401 21.7524 23.4286C21.8095 23.5086 21.8438 23.5886 21.8781 23.6686C19.9124 22.2629 17.4666 22.6972 17.4666 22.6972Z" fill="url(#paint10_linear_7_690)"/>
<path opacity="0.5" d="M24.918 42.4802C35.0169 42.4802 43.2038 34.2933 43.2038 24.1944C43.2038 14.0955 35.0169 5.90869 24.918 5.90869C14.8191 5.90869 6.63232 14.0955 6.63232 24.1944C6.63232 34.2933 14.8191 42.4802 24.918 42.4802Z" fill="url(#paint11_radial_7_690)"/>
<path opacity="0.5" d="M24.918 42.4802C35.0169 42.4802 43.2038 34.2933 43.2038 24.1944C43.2038 14.0955 35.0169 5.90869 24.918 5.90869C14.8191 5.90869 6.63232 14.0955 6.63232 24.1944C6.63232 34.2933 14.8191 42.4802 24.918 42.4802Z" fill="url(#paint12_radial_7_690)"/>
<path opacity="0.5" d="M24.918 42.4802C35.0169 42.4802 43.2038 34.2933 43.2038 24.1944C43.2038 14.0955 35.0169 5.90869 24.918 5.90869C14.8191 5.90869 6.63232 14.0955 6.63232 24.1944C6.63232 34.2933 14.8191 42.4802 24.918 42.4802Z" fill="url(#paint13_radial_7_690)"/>
<path d="M37.2038 4.68579C36.0953 4.68579 35.1124 5.24579 34.5295 6.09151C33.9467 5.24579 32.9638 4.68579 31.8553 4.68579C30.061 4.68579 28.6096 6.13723 28.6096 7.93153C28.6096 11.8858 34.5295 15.4401 34.5295 15.4401C34.5295 15.4401 40.4495 11.8858 40.4495 7.93153C40.4495 6.13723 38.9981 4.68579 37.2038 4.68579Z" fill="url(#paint14_radial_7_690)"/>
<path opacity="0.5" d="M38.5409 4.97144C40.3124 7.80569 38.6781 11.52 36.7124 12.5714C34.5409 13.7372 33.0667 13.1886 29.9924 11.44C31.7409 13.76 34.5181 15.4286 34.5181 15.4286C34.5181 15.4286 40.4381 11.8743 40.4381 7.91999C40.4495 6.61715 39.6723 5.48572 38.5409 4.97144Z" fill="url(#paint15_radial_7_690)"/>
<path opacity="0.5" d="M37.2038 4.68579C36.0953 4.68579 35.1124 5.24579 34.5295 6.09151C33.9467 5.24579 32.9638 4.68579 31.8553 4.68579C30.061 4.68579 28.6096 6.13723 28.6096 7.93153C28.6096 11.8858 34.5295 15.4401 34.5295 15.4401C34.5295 15.4401 40.4495 11.8858 40.4495 7.93153C40.4495 6.13723 38.9981 4.68579 37.2038 4.68579Z" fill="url(#paint16_radial_7_690)"/>
<path opacity="0.5" d="M37.2038 4.68579C36.0953 4.68579 35.1124 5.24579 34.5295 6.09151C33.9467 5.24579 32.9638 4.68579 31.8553 4.68579C30.061 4.68579 28.6096 6.13723 28.6096 7.93153C28.6096 11.8858 34.5295 15.4401 34.5295 15.4401C34.5295 15.4401 40.4495 11.8858 40.4495 7.93153C40.4495 6.13723 38.9981 4.68579 37.2038 4.68579Z" fill="url(#paint17_radial_7_690)"/>
<path opacity="0.24" d="M33.7182 5.99993C34.0382 6.76562 33.3182 7.80566 32.1068 8.31992C30.8953 8.83424 29.6382 8.6399 29.3182 7.87424C28.9982 7.10852 29.7182 6.06848 30.9296 5.55421C32.141 5.03993 33.3982 5.23422 33.7182 5.99993Z" fill="url(#paint18_radial_7_690)"/>
<path opacity="0.24" d="M37.6838 5.38305C38.1409 5.89734 37.8667 6.90304 37.0438 7.6345C36.2324 8.3659 35.2038 8.54878 34.7352 8.03446C34.2781 7.5202 34.5524 6.51448 35.3752 5.78305C36.1867 5.05162 37.2267 4.86877 37.6838 5.38305Z" fill="url(#paint19_radial_7_690)"/>
<path opacity="0.32" d="M37.2609 5.54289C38.8837 6.10288 40.438 8.50288 37.8209 11.4972C36.2437 13.2915 34.5295 14.1943 32.3466 13.8401C33.5238 14.8229 34.5295 15.4286 34.5295 15.4286C34.5295 15.4286 40.4495 11.8743 40.4495 7.92004C40.4495 6.12574 38.998 4.67432 37.2037 4.67432C36.0952 4.67432 35.1123 5.23431 34.5295 6.08002C34.5295 6.09148 36.0723 5.14289 37.2609 5.54289Z" fill="url(#paint20_linear_7_690)"/>
<path d="M14.0837 27.8171C12.9751 27.8171 11.9923 28.3771 11.4094 29.2228C10.8266 28.3657 9.84374 27.8171 8.73518 27.8171C6.94088 27.8171 5.48944 29.2685 5.48944 31.0514C5.48944 35.0057 11.4094 38.56 11.4094 38.56C11.4094 38.56 17.3295 35.0057 17.3295 31.0514C17.3295 29.2685 15.878 27.8171 14.0837 27.8171Z" fill="url(#paint21_radial_7_690)"/>
<path opacity="0.5" d="M15.4208 28.1028C17.1923 30.9371 15.558 34.6514 13.5923 35.7028C11.4209 36.8685 9.94653 36.32 6.87225 34.5714C8.62083 36.8914 11.398 38.5599 11.398 38.5599C11.398 38.5599 17.318 35.0057 17.318 31.0514C17.3294 29.7371 16.5522 28.6056 15.4208 28.1028Z" fill="url(#paint22_radial_7_690)"/>
<path opacity="0.5" d="M14.0837 27.8171C12.9751 27.8171 11.9923 28.3771 11.4094 29.2228C10.8266 28.3657 9.84374 27.8171 8.73518 27.8171C6.94088 27.8171 5.48944 29.2685 5.48944 31.0514C5.48944 35.0057 11.4094 38.56 11.4094 38.56C11.4094 38.56 17.3295 35.0057 17.3295 31.0514C17.3295 29.2685 15.878 27.8171 14.0837 27.8171Z" fill="url(#paint23_radial_7_690)"/>
<path opacity="0.5" d="M14.0837 27.8171C12.9751 27.8171 11.9923 28.3771 11.4094 29.2228C10.8266 28.3657 9.84374 27.8171 8.73518 27.8171C6.94088 27.8171 5.48944 29.2685 5.48944 31.0514C5.48944 35.0057 11.4094 38.56 11.4094 38.56C11.4094 38.56 17.3295 35.0057 17.3295 31.0514C17.3295 29.2685 15.878 27.8171 14.0837 27.8171Z" fill="url(#paint24_radial_7_690)"/>
<path opacity="0.24" d="M10.5981 29.1314C10.9181 29.8971 10.1981 30.9371 8.98667 31.4514C7.77527 31.9657 6.5181 31.7714 6.19811 31.0057C5.87811 30.24 6.59813 29.2 7.80953 28.6857C9.02099 28.16 10.2781 28.3657 10.5981 29.1314Z" fill="url(#paint25_radial_7_690)"/>
<path opacity="0.24" d="M14.5639 28.5144C15.021 29.0287 14.7467 30.0344 13.9239 30.7658C13.1125 31.4973 12.0839 31.6801 11.6153 31.1658C11.1467 30.6515 11.4325 29.6459 12.2553 28.9144C13.0667 28.183 14.1067 28.0001 14.5639 28.5144Z" fill="url(#paint26_radial_7_690)"/>
<path opacity="0.32" d="M14.1409 28.6745C15.7637 29.2345 17.318 31.6345 14.7009 34.6288C13.1237 36.423 11.4094 37.3259 9.22656 36.9716C10.4038 37.9545 11.4094 38.5602 11.4094 38.5602C11.4094 38.5602 17.3294 35.0059 17.3294 31.0516C17.3294 29.2574 15.878 27.8059 14.0837 27.8059C12.9752 27.8059 11.9923 28.366 11.4094 29.2117C11.4094 29.2231 12.9523 28.263 14.1409 28.6745Z" fill="url(#paint27_linear_7_690)"/>
<path d="M40.4152 32.5029C39.3066 32.5029 38.3238 33.0629 37.7409 33.9087C37.158 33.0515 36.1752 32.5029 35.0666 32.5029C33.2723 32.5029 31.8209 33.9544 31.8209 35.7486C31.8209 39.7029 37.7409 43.2572 37.7409 43.2572C37.7409 43.2572 43.6609 39.7029 43.6609 35.7486C43.6609 33.9544 42.2095 32.5029 40.4152 32.5029Z" fill="url(#paint28_radial_7_690)"/>
<path opacity="0.5" d="M41.7637 32.7886C43.5351 35.6229 41.9009 39.3372 39.9351 40.3886C37.7637 41.5543 36.2894 41.0057 33.2151 39.2572C34.9637 41.5771 37.7409 43.2457 37.7409 43.2457C37.7409 43.2457 43.6609 39.6915 43.6609 35.7372C43.6609 34.4229 42.8837 33.2914 41.7637 32.7886Z" fill="url(#paint29_radial_7_690)"/>
<path opacity="0.5" d="M40.4152 32.5029C39.3066 32.5029 38.3238 33.0629 37.7409 33.9087C37.158 33.0515 36.1752 32.5029 35.0666 32.5029C33.2723 32.5029 31.8209 33.9544 31.8209 35.7486C31.8209 39.7029 37.7409 43.2572 37.7409 43.2572C37.7409 43.2572 43.6609 39.7029 43.6609 35.7486C43.6609 33.9544 42.2095 32.5029 40.4152 32.5029Z" fill="url(#paint30_radial_7_690)"/>
<path opacity="0.5" d="M40.4152 32.5029C39.3066 32.5029 38.3238 33.0629 37.7409 33.9087C37.158 33.0515 36.1752 32.5029 35.0666 32.5029C33.2723 32.5029 31.8209 33.9544 31.8209 35.7486C31.8209 39.7029 37.7409 43.2572 37.7409 43.2572C37.7409 43.2572 43.6609 39.7029 43.6609 35.7486C43.6609 33.9544 42.2095 32.5029 40.4152 32.5029Z" fill="url(#paint31_radial_7_690)"/>
<path opacity="0.24" d="M36.9296 33.8172C37.2495 34.5829 36.5295 35.6229 35.3181 36.1372C34.1067 36.6515 32.8496 36.4572 32.5295 35.6915C32.2095 34.9258 32.9295 33.8858 34.141 33.3715C35.3524 32.8458 36.6096 33.0515 36.9296 33.8172Z" fill="url(#paint32_radial_7_690)"/>
<path opacity="0.24" d="M40.8954 33.2002C41.3525 33.7145 41.0782 34.7202 40.2553 35.4517C39.4439 36.1831 38.4153 36.3659 37.9468 35.8516C37.4896 35.3374 37.7639 34.3316 38.5867 33.6002C39.3982 32.8688 40.4382 32.6859 40.8954 33.2002Z" fill="url(#paint33_radial_7_690)"/>
<path opacity="0.32" d="M40.4723 33.36C42.0951 33.92 43.6494 36.32 41.0323 39.3143C39.4551 41.1086 37.7408 42.0114 35.558 41.6571C36.7351 42.64 37.7408 43.2457 37.7408 43.2457C37.7408 43.2457 43.6608 39.6915 43.6608 35.7372C43.6608 33.9429 42.2094 32.4915 40.4151 32.4915C39.3065 32.4915 38.3237 33.0514 37.7408 33.8971C37.7408 33.9086 39.2837 32.9486 40.4723 33.36Z" fill="url(#paint34_linear_7_690)"/>
<defs>
<radialGradient id="paint0_radial_7_690" cx="0" cy="0" r="1" gradientUnits="userSpaceOnUse" gradientTransform="translate(21.3203 16.7877) scale(22.0594)">
<stop stop-color="#FFE030"/>
<stop offset="1" stop-color="#FFB92E"/>
</radialGradient>
<radialGradient id="paint1_radial_7_690" cx="0" cy="0" r="1" gradientUnits="userSpaceOnUse" gradientTransform="translate(21.3203 16.7877) scale(17.3551 17.3551)">
<stop stop-color="#FFEA5F"/>
<stop offset="1" stop-color="#FFBC47" stop-opacity="0"/>
</radialGradient>
<radialGradient id="paint2_radial_7_690" cx="0" cy="0" r="1" gradientUnits="userSpaceOnUse" gradientTransform="translate(14.9558 28.7474) rotate(-2.7703) scale(7.6914 6.0858)">
<stop stop-color="#FF4C00"/>
<stop offset="0.1542" stop-color="#FF4C00"/>
<stop offset="0.1795" stop-color="#FF4C00"/>
<stop offset="0.3996" stop-color="#FB4C0B" stop-opacity="0.7318"/>
<stop offset="0.7799" stop-color="#EF4B27" stop-opacity="0.2683"/>
<stop offset="1" stop-color="#E74A3A" stop-opacity="0"/>
</radialGradient>
<radialGradient id="paint3_radial_7_690" cx="0" cy="0" r="1" gradientUnits="userSpaceOnUse" gradientTransform="translate(34.8741 28.7474) rotate(-177.23) scale(7.6914 6.0858)">
<stop stop-color="#FF4C00"/>
<stop offset="0.1542" stop-color="#FF4C00"/>
<stop offset="0.1795" stop-color="#FF4C00"/>
<stop offset="0.3996" stop-color="#FB4C0B" stop-opacity="0.7318"/>
<stop offset="0.7799" stop-color="#EF4B27" stop-opacity="0.2683"/>
<stop offset="1" stop-color="#E74A3A" stop-opacity="0"/>
</radialGradient>
<linearGradient id="paint4_linear_7_690" x1="24.9178" y1="29.5075" x2="24.9178" y2="33.8083" gradientUnits="userSpaceOnUse">
<stop offset="0.00132565" stop-color="#3C2200"/>
<stop offset="1" stop-color="#512D00"/>
</linearGradient>
<linearGradient id="paint5_linear_7_690" x1="16.9426" y1="18.2288" x2="17.1988" y2="16.3191" gradientUnits="userSpaceOnUse">
<stop offset="0.00132565" stop-color="#3C2200"/>
<stop offset="1" stop-color="#7A4400"/>
</linearGradient>
<linearGradient id="paint6_linear_7_690" x1="32.8922" y1="18.229" x2="32.636" y2="16.3194" gradientUnits="userSpaceOnUse">
<stop offset="0.00132565" stop-color="#3C2200"/>
<stop offset="1" stop-color="#7A4400"/>
</linearGradient>
<radialGradient id="paint7_radial_7_690" cx="0" cy="0" r="1" gradientUnits="userSpaceOnUse" gradientTransform="translate(32.198 23.6765) rotate(9.9808) scale(3.28627 1.58559)">
<stop offset="0.00132565" stop-color="#7A4400"/>
<stop offset="1" stop-color="#643800"/>
</radialGradient>
<linearGradient id="paint8_linear_7_690" x1="32.6763" y1="21.0311" x2="32.3203" y2="23.1242" gradientUnits="userSpaceOnUse">
<stop offset="0.00132565" stop-color="#3C2200"/>
<stop offset="1" stop-color="#512D00"/>
</linearGradient>
<radialGradient id="paint9_radial_7_690" cx="0" cy="0" r="1" gradientUnits="userSpaceOnUse" gradientTransform="translate(17.6837 23.6262) rotate(170.019) scale(3.28627 1.58559)">
<stop offset="0.00132565" stop-color="#7A4400"/>
<stop offset="1" stop-color="#643800"/>
</radialGradient>
<linearGradient id="paint10_linear_7_690" x1="17.1304" y1="21.0138" x2="17.4864" y2="23.1069" gradientUnits="userSpaceOnUse">
<stop offset="0.00132565" stop-color="#3C2200"/>
<stop offset="1" stop-color="#512D00"/>
</linearGradient>
<radialGradient id="paint11_radial_7_690" cx="0" cy="0" r="1" gradientUnits="userSpaceOnUse" gradientTransform="translate(36.4741 11.261) rotate(-177.23) scale(7.6914 6.0858)">
<stop stop-color="#FF4C00"/>
<stop offset="0.1542" stop-color="#FF4C00"/>
<stop offset="0.1795" stop-color="#FF4C00"/>
<stop offset="0.3996" stop-color="#FB4C0B" stop-opacity="0.7318"/>
<stop offset="0.7799" stop-color="#EF4B27" stop-opacity="0.2683"/>
<stop offset="1" stop-color="#E74A3A" stop-opacity="0"/>
</radialGradient>
<radialGradient id="paint12_radial_7_690" cx="0" cy="0" r="1" gradientUnits="userSpaceOnUse" gradientTransform="translate(38.874 39.8716) rotate(-177.23) scale(7.6914 6.0858)">
<stop stop-color="#FF4C00"/>
<stop offset="0.1542" stop-color="#FF4C00"/>
<stop offset="0.1795" stop-color="#FF4C00"/>
<stop offset="0.3996" stop-color="#FB4C0B" stop-opacity="0.7318"/>
<stop offset="0.7799" stop-color="#EF4B27" stop-opacity="0.2683"/>
<stop offset="1" stop-color="#E74A3A" stop-opacity="0"/>
</radialGradient>
<radialGradient id="paint13_radial_7_690" cx="0" cy="0" r="1" gradientUnits="userSpaceOnUse" gradientTransform="translate(10.1322 35.7192) rotate(-177.23) scale(7.6914 6.0858)">
<stop stop-color="#FF4C00"/>
<stop offset="0.1542" stop-color="#FF4C00"/>
<stop offset="0.1795" stop-color="#FF4C00"/>
<stop offset="0.3996" stop-color="#FB4C0B" stop-opacity="0.7318"/>
<stop offset="0.7799" stop-color="#EF4B27" stop-opacity="0.2683"/>
<stop offset="1" stop-color="#E74A3A" stop-opacity="0"/>
</radialGradient>
<radialGradient id="paint14_radial_7_690" cx="0" cy="0" r="1" gradientUnits="userSpaceOnUse" gradientTransform="translate(32.8348 7.68685) rotate(-29.408) scale(9.26292 7.3479)">
<stop offset="0.2479" stop-color="#FF0000"/>
<stop offset="0.8639" stop-color="#C20000"/>
</radialGradient>
<radialGradient id="paint15_radial_7_690" cx="0" cy="0" r="1" gradientUnits="userSpaceOnUse" gradientTransform="translate(33.0638 7.11857) rotate(-29.408) scale(7.97508 6.32628)">
<stop offset="0.2479" stop-color="#FF0000"/>
<stop offset="1" stop-color="#C20000"/>
</radialGradient>
<radialGradient id="paint16_radial_7_690" cx="0" cy="0" r="1" gradientUnits="userSpaceOnUse" gradientTransform="translate(32.8348 7.68685) rotate(-29.408) scale(9.26292 7.3479)">
<stop stop-color="white" stop-opacity="0.25"/>
<stop offset="1" stop-color="white" stop-opacity="0"/>
</radialGradient>
<radialGradient id="paint17_radial_7_690" cx="0" cy="0" r="1" gradientUnits="userSpaceOnUse" gradientTransform="translate(36.1647 10.8299) rotate(-26.296) scale(6.76158 3.34118)">
<stop stop-color="#BD2719" stop-opacity="0.25"/>
<stop offset="1" stop-color="#BD2719" stop-opacity="0"/>
</radialGradient>
<radialGradient id="paint18_radial_7_690" cx="0" cy="0" r="1" gradientUnits="userSpaceOnUse" gradientTransform="translate(31.517 6.93962) rotate(-21.6908) scale(2.40374 1.49317)">
<stop stop-color="white"/>
<stop offset="1" stop-color="white" stop-opacity="0"/>
</radialGradient>
<radialGradient id="paint19_radial_7_690" cx="0" cy="0" r="1" gradientUnits="userSpaceOnUse" gradientTransform="translate(36.2068 6.71944) rotate(-40.7635) scale(1.99016 1.23634)">
<stop stop-color="white"/>
<stop offset="1" stop-color="white" stop-opacity="0"/>
</radialGradient>
<linearGradient id="paint20_linear_7_690" x1="35.7504" y1="19.6652" x2="36.8973" y2="4.19996" gradientUnits="userSpaceOnUse">
<stop stop-color="#860805"/>
<stop offset="1" stop-color="#BD2719" stop-opacity="0"/>
</linearGradient>
<radialGradient id="paint21_radial_7_690" cx="0" cy="0" r="1" gradientUnits="userSpaceOnUse" gradientTransform="translate(9.71576 30.8118) rotate(-29.408) scale(9.26292 7.3479)">
<stop offset="0.2479" stop-color="#FF0000"/>
<stop offset="0.8639" stop-color="#C20000"/>
</radialGradient>
<radialGradient id="paint22_radial_7_690" cx="0" cy="0" r="1" gradientUnits="userSpaceOnUse" gradientTransform="translate(9.94479 30.2436) rotate(-29.408) scale(7.97508 6.32628)">
<stop offset="0.2479" stop-color="#FF0000"/>
<stop offset="1" stop-color="#C20000"/>
</radialGradient>
<radialGradient id="paint23_radial_7_690" cx="0" cy="0" r="1" gradientUnits="userSpaceOnUse" gradientTransform="translate(9.71576 30.8118) rotate(-29.408) scale(9.26292 7.3479)">
<stop stop-color="white" stop-opacity="0.25"/>
<stop offset="1" stop-color="white" stop-opacity="0"/>
</radialGradient>
<radialGradient id="paint24_radial_7_690" cx="0" cy="0" r="1" gradientUnits="userSpaceOnUse" gradientTransform="translate(13.0461 33.9564) rotate(-26.296) scale(6.76158 3.34118)">
<stop stop-color="#BD2719" stop-opacity="0.25"/>
<stop offset="1" stop-color="#BD2719" stop-opacity="0"/>
</radialGradient>
<radialGradient id="paint25_radial_7_690" cx="0" cy="0" r="1" gradientUnits="userSpaceOnUse" gradientTransform="translate(8.39639 30.0644) rotate(-21.6908) scale(2.40374 1.49317)">
<stop stop-color="white"/>
<stop offset="1" stop-color="white" stop-opacity="0"/>
</radialGradient>
<radialGradient id="paint26_radial_7_690" cx="0" cy="0" r="1" gradientUnits="userSpaceOnUse" gradientTransform="translate(13.0873 29.8464) rotate(-40.7633) scale(1.99016 1.23634)">
<stop stop-color="white"/>
<stop offset="1" stop-color="white" stop-opacity="0"/>
</radialGradient>
<linearGradient id="paint27_linear_7_690" x1="12.6308" y1="42.7913" x2="13.7777" y2="27.3261" gradientUnits="userSpaceOnUse">
<stop stop-color="#860805"/>
<stop offset="1" stop-color="#BD2719" stop-opacity="0"/>
</linearGradient>
<radialGradient id="paint28_radial_7_690" cx="0" cy="0" r="1" gradientUnits="userSpaceOnUse" gradientTransform="translate(36.0469 35.4989) rotate(-29.408) scale(9.26292 7.3479)">
<stop offset="0.2479" stop-color="#FF0000"/>
<stop offset="0.8639" stop-color="#C20000"/>
</radialGradient>
<radialGradient id="paint29_radial_7_690" cx="0" cy="0" r="1" gradientUnits="userSpaceOnUse" gradientTransform="translate(36.2759 34.9306) rotate(-29.408) scale(7.97508 6.32628)">
<stop offset="0.2479" stop-color="#FF0000"/>
<stop offset="1" stop-color="#C20000"/>
</radialGradient>
<radialGradient id="paint30_radial_7_690" cx="0" cy="0" r="1" gradientUnits="userSpaceOnUse" gradientTransform="translate(36.0469 35.4989) rotate(-29.408) scale(9.26292 7.3479)">
<stop stop-color="white" stop-opacity="0.25"/>
<stop offset="1" stop-color="white" stop-opacity="0"/>
</radialGradient>
<radialGradient id="paint31_radial_7_690" cx="0" cy="0" r="1" gradientUnits="userSpaceOnUse" gradientTransform="translate(39.3773 38.6418) rotate(-26.296) scale(6.76158 3.34118)">
<stop stop-color="#BD2719" stop-opacity="0.25"/>
<stop offset="1" stop-color="#BD2719" stop-opacity="0"/>
</radialGradient>
<radialGradient id="paint32_radial_7_690" cx="0" cy="0" r="1" gradientUnits="userSpaceOnUse" gradientTransform="translate(34.7288 34.7509) rotate(-21.6907) scale(2.40375 1.49317)">
<stop stop-color="white"/>
<stop offset="1" stop-color="white" stop-opacity="0"/>
</radialGradient>
<radialGradient id="paint33_radial_7_690" cx="0" cy="0" r="1" gradientUnits="userSpaceOnUse" gradientTransform="translate(39.4185 34.5325) rotate(-40.7635) scale(1.99016 1.23634)">
<stop stop-color="white"/>
<stop offset="1" stop-color="white" stop-opacity="0"/>
</radialGradient>
<linearGradient id="paint34_linear_7_690" x1="38.9627" y1="47.4769" x2="40.1096" y2="32.0116" gradientUnits="userSpaceOnUse">
<stop stop-color="#860805"/>
<stop offset="1" stop-color="#BD2719" stop-opacity="0"/>
</linearGradient>
</defs>
</svg>
